PathFileType	4	(X/Y/Z)	 s01c0103.trc
DataRate	CameraRate	NumFrames	NumMarkers	Units	OrigDataRate	OrigDataStartFrame	OrigNumFrames
200	200	6	48	mm	200	501	2000
Frame#	Time	racr			lacr			c7			jug			rlel			rdr			llel			ldr			s2			lic			ric			lasi			rasi			rpsi			lpsi			rgt			lgt			rth1			rth2			rth3			rth4			rlfc			rsh1			rsh2			rsh3			rsh4			rlmal			rmmal			rcal			rtoe			rmt5			lth1			lth2			lth4			lth3			llfc			lsh1			lsh2			lsh3			lsh4			llmal			lmmal			lcal			ltoe			lmt5			SBIKE			LBIKE			RBIKE			
		X1	Y1	Z1	X2	Y2	Z2	X3	Y3	Z3	X4	Y4	Z4	X5	Y5	Z5	X6	Y6	Z6	X7	Y7	Z7	X8	Y8	Z8	X9	Y9	Z9	X10	Y10	Z10	X11	Y11	Z11	X12	Y12	Z12	X13	Y13	Z13	X14	Y14	Z14	X15	Y15	Z15	X16	Y16	Z16	X17	Y17	Z17	X18	Y18	Z18	X19	Y19	Z19	X20	Y20	Z20	X21	Y21	Z21	X22	Y22	Z22	X23	Y23	Z23	X24	Y24	Z24	X25	Y25	Z25	X26	Y26	Z26	X27	Y27	Z27	X28	Y28	Z28	X29	Y29	Z29	X30	Y30	Z30	X31	Y31	Z31	X32	Y32	Z32	X33	Y33	Z33	X34	Y34	Z34	X35	Y35	Z35	X36	Y36	Z36	X37	Y37	Z37	X38	Y38	Z38	X39	Y39	Z39	X40	Y40	Z40	X41	Y41	Z41	X42	Y42	Z42	X43	Y43	Z43	X44	Y44	Z44	X45	Y45	Z45	X46	Y46	Z46	X47	Y47	Z47	X48	Y48	Z48	
501	2.5050	501.441045	1325.914896	-100.966680	488.099785	1310.325261	-397.632715	445.184376	1398.387064	-243.489132	446.359939	1234.310598	-244.990130	574.838626	1064.445058	-0.303577	740.149023	859.092130	-59.879543	544.921962	1052.914476	-512.428132	724.304060	878.825079	-430.761650	NaN	NaN	NaN	68.396317	1197.644138	-397.825887	92.537551	1165.225342	-64.269468	81.713929	1140.652628	-371.181819	118.797595	1122.208171	-95.911844	-45.023305	1200.586068	-150.845296	-59.708490	1211.932545	-255.875961	42.640722	1041.218569	-39.788022	34.584204	1084.485774	-423.139029	113.582315	931.268311	-27.051280	165.730434	866.067054	-32.124675	215.927919	792.187227	-48.951254	209.962756	898.348441	-46.246211	256.770634	685.858590	-71.954338	238.721259	568.738830	-41.388909	240.395957	484.339738	-49.293729	233.965125	396.464889	-62.547348	289.106722	486.493000	-86.136297	214.890211	279.657087	-90.987612	257.080500	297.490915	-162.250718	170.343179	270.391355	-142.109400	422.241872	167.269142	-133.966541	314.948483	168.936592	-63.007787	133.503107	1020.021055	-439.597002	221.651938	1010.901762	-450.433765	230.361297	1061.747054	-433.040894	304.989135	990.058786	-445.078437	400.912746	912.245149	-435.627479	305.439263	850.979558	-456.016027	250.372999	785.246915	-443.851621	194.156392	722.125409	-425.676024	296.480056	751.533752	-418.880644	115.978128	628.864554	-404.627089	148.605954	623.065878	-323.631864	58.907312	617.290017	-358.522452	282.969111	455.933521	-372.538897	182.034554	496.188732	-435.531456	-223.491981	893.289487	-249.284502	-12.405992	85.550686	-455.672121	-21.196524	80.619996	-55.606792	
502	2.5100	501.812914	1324.704939	-99.950574	487.186802	1311.543111	-396.955421	445.367375	1398.395388	-242.150526	446.677277	1234.572930	-244.374809	575.928972	1063.024668	0.734299	740.510181	858.606902	-59.315481	542.204846	1054.088754	-511.795468	723.265355	880.647631	-430.834815	NaN	NaN	NaN	68.237665	1199.083523	-396.328189	92.070648	1165.511566	-63.111685	81.733555	1141.911245	-369.988246	118.151292	1122.013956	-94.245735	-45.209454	1200.787066	-149.646956	-59.841883	1212.848450	-254.491565	41.002081	1040.941333	-39.144553	34.652452	1087.300617	-422.320767	110.897069	930.315830	-26.061569	162.220950	864.428787	-30.753485	211.758248	789.861199	-47.227322	207.006469	896.201316	-44.505646	251.149075	683.377286	-70.484059	232.883441	566.636402	-40.261058	234.492551	482.191368	-48.177468	228.043818	394.284127	-61.558932	283.445286	484.308904	-84.769028	209.323917	277.970008	-90.083500	249.402080	294.411721	-162.111367	164.769804	269.859170	-141.349822	414.186187	160.880198	-134.313458	307.164568	164.938545	-62.963368	133.852632	1024.293696	-438.932080	222.246859	1016.479404	-449.286654	230.200355	1067.300563	-431.076188	305.810958	996.615335	-443.439089	403.250910	919.614005	-434.181535	308.504335	857.308743	-454.496194	254.084860	790.808424	-442.584517	198.988321	726.937478	-424.856814	300.692794	757.476551	-418.081623	121.994430	632.082371	-403.981447	154.747331	626.673896	-322.983127	64.844726	619.166287	-358.166096	291.722709	462.075421	-372.405729	190.068089	500.563896	-435.240582	-223.511809	893.331205	-249.201643	-12.403011	85.600166	-455.606169	-21.201236	80.646085	-55.566357	
503	2.5150	501.869608	1323.700864	-98.721671	486.369827	1312.665225	-396.343475	445.404330	1398.318330	-240.958055	446.881569	1234.761744	-243.805732	576.581275	1061.781599	1.896698	740.542884	858.166665	-58.828106	538.999070	1054.983999	-511.226123	722.266940	882.308549	-431.098404	NaN	NaN	NaN	68.563539	1200.515008	-395.228275	91.513808	1165.698093	-61.932486	81.597276	1143.186249	-368.807207	117.542452	1121.867655	-92.592864	-45.431259	1201.071737	-148.561731	-60.076603	1213.812490	-253.172519	39.390955	1040.702566	-38.455507	34.610097	1090.058094	-421.429593	108.322217	929.393165	-25.096689	158.798508	862.918057	-29.710961	207.746134	787.931383	-45.535882	204.253102	894.319338	-42.779164	246.218147	681.294963	-69.337928	227.396330	564.784266	-39.359244	228.771755	480.407823	-47.206387	222.043060	392.553505	-60.730467	277.952764	482.314366	-83.516219	203.582203	276.502866	-89.385959	241.860893	291.824653	-161.982756	159.077668	269.902109	-140.758822	405.838680	154.969915	-134.567977	299.194022	161.389653	-62.881073	134.042549	1028.316075	-438.058536	222.641311	1021.954637	-448.261125	229.853986	1072.232904	-428.374668	306.351656	1002.619951	-441.667096	405.358134	926.503752	-432.672149	311.519009	863.257689	-452.981699	257.944113	795.939424	-441.462027	203.648409	731.213064	-423.920838	305.095838	763.063057	-417.274357	128.146139	634.619491	-403.373126	160.236629	629.313904	-322.276965	70.841919	620.359699	-357.859279	300.732620	467.660587	-372.113554	198.381742	504.433430	-434.870784	-223.483687	893.364084	-249.124024	-12.394646	85.668353	-455.558431	-21.195079	80.631757	-55.531519	
504	2.5200	501.645530	1322.943605	-97.433850	485.699134	1313.645223	-395.772974	445.312630	1398.148693	-239.887835	446.979137	1234.880049	-243.281819	576.768083	1060.587057	3.052286	740.462172	857.948176	-58.530294	535.688211	1055.401682	-510.605167	721.375513	883.524723	-431.241259	NaN	NaN	NaN	68.393300	1201.943119	-393.959633	90.980310	1165.849539	-60.798932	81.276178	1144.401445	-367.576949	116.795371	1121.683266	-91.094495	-45.740718	1201.424437	-147.474844	-60.419503	1214.826004	-251.906625	37.852211	1040.522165	-37.846500	34.457654	1092.633585	-420.591354	105.833447	928.516517	-24.302120	155.753745	861.618118	-28.574745	204.081515	786.091430	-43.816178	201.574211	892.698495	-41.152311	241.799694	679.460286	-68.472127	222.332269	563.403056	-38.675194	223.328317	479.044669	-46.475559	216.170146	391.160103	-60.063590	272.720471	480.673599	-82.500395	197.540344	275.650118	-88.745869	234.551761	289.765468	-161.853684	153.223606	270.132069	-140.262361	397.219371	149.489295	-134.809861	290.821739	158.367074	-62.865899	134.135921	1032.116496	-437.035264	222.832590	1026.828271	-446.581480	229.323097	1076.834392	-425.615831	306.686883	1008.281895	-439.681451	407.146660	933.088670	-430.978485	314.440328	868.566225	-451.445222	261.785287	800.479971	-440.324426	208.209326	735.018624	-423.136039	309.395468	768.208949	-416.386037	134.301633	636.649756	-402.818300	168.427971	631.534873	-322.672003	76.860826	620.831115	-357.617558	310.099115	472.759175	-371.717105	206.798069	507.722964	-434.582765	-223.482912	893.380865	-248.973467	-12.397936	85.703507	-455.512851	-21.186743	80.641568	-55.484815	
505	2.5250	501.206567	1322.306517	-96.255751	485.208965	1314.447914	-395.219608	445.124474	1397.886678	-238.914539	446.976304	1234.930852	-242.801989	576.451379	1059.697240	4.079858	740.322165	857.722943	-58.157465	531.336231	1055.471974	-510.878125	720.726234	884.459076	-431.366151	NaN	NaN	NaN	68.291880	1203.279279	-392.784591	90.432252	1165.881882	-59.691028	80.924029	1145.645390	-366.422053	116.015265	1121.523368	-89.647932	-46.104930	1201.856327	-146.454511	-60.872886	1215.888672	-250.684123	36.423777	1040.306404	-37.312146	34.140969	1094.983998	-419.739382	103.503720	927.967310	-23.513769	152.950395	860.564117	-27.524486	200.669793	784.673252	-42.111481	199.054209	891.145618	-39.790553	238.202217	678.023366	-67.852653	217.675633	562.416055	-38.262240	218.106416	477.992206	-46.008377	210.433927	390.179801	-59.563242	267.208216	479.177059	-81.936143	191.501940	275.152258	-88.209501	227.569504	288.269925	-161.712951	147.280446	270.796018	-139.929353	388.423835	144.745259	-135.027640	282.436868	155.881594	-62.872551	133.978576	1035.673014	-435.854329	222.863974	1031.183919	-444.714371	228.787926	1080.968011	-423.031763	306.872937	1013.392449	-437.584294	408.534655	939.252426	-429.216225	317.190402	873.394029	-449.956091	265.679818	804.636530	-439.266065	213.349032	737.933485	-422.095198	313.677584	773.021895	-415.338128	140.861423	637.835859	-402.318473	173.578895	633.767690	-321.435360	82.857041	620.535143	-357.455847	318.799825	477.218695	-371.457243	214.949697	510.275738	-434.144751	-223.518697	893.384396	-248.900483	-12.430737	85.702861	-455.482803	-21.181890	80.619627	-55.446047	
506	2.5300	500.663171	1321.719876	-95.184743	484.913084	1315.050613	-394.663274	444.873341	1397.539583	-238.020161	446.879392	1234.917160	-242.365164	575.891971	1059.052310	4.896368	740.164769	857.503312	-57.735504	528.204440	1055.412453	-510.537907	719.987201	885.101095	-431.169053	NaN	NaN	NaN	68.195090	1204.611579	-391.715900	89.771611	1165.877460	-58.733303	80.339726	1146.892019	-365.260328	115.086365	1121.273544	-88.364550	-46.569383	1202.313405	-145.403533	-61.434151	1216.998529	-249.498799	35.041314	1040.114663	-36.846599	33.713005	1097.106651	-418.954260	101.469564	927.476149	-22.900538	150.422733	859.732321	-26.608631	197.704740	783.529714	-40.602689	196.979687	890.140128	-38.326106	235.115181	676.959393	-67.476473	213.585815	561.817648	-38.128657	213.199140	477.475126	-45.798620	204.702111	389.723966	-59.336340	262.404970	478.094557	-81.556867	185.163718	275.008757	-87.928850	220.945410	287.362220	-161.562167	141.148945	271.899601	-139.808345	379.337884	140.447293	-135.218471	273.671239	153.914559	-62.998446	133.791804	1038.738251	-434.607316	222.720643	1035.027871	-442.947847	228.120507	1084.684629	-420.749663	306.857095	1017.912007	-435.462394	409.666617	944.909935	-427.250322	319.823736	877.586311	-448.428383	269.495616	807.900837	-438.067932	218.330056	740.194839	-421.203160	317.940158	777.033108	-414.236874	147.638292	638.433767	-401.655467	179.778874	634.653877	-321.055109	88.783208	619.422201	-357.386353	327.989916	481.559002	-371.324008	223.487128	512.501398	-433.927997	-223.619658	893.360937	-248.858407	-12.443116	85.710478	-455.468396	-21.230876	80.623140	-55.406485	
